<svg xmlns="http://www.w3.org/2000/svg" viewBox="0 0 1920 1080" preserveAspectRatio="xMidYMid slice">
  <defs>
    <linearGradient id="spaceGradient" x1="0" y1="0" x2="1" y2="1">
      <stop offset="0%" stop-color="#040611"/>
      <stop offset="55%" stop-color="#0b1534"/>
      <stop offset="100%" stop-color="#101f47"/>
    </linearGradient>
    <radialGradient id="nebulaA" cx="0.16" cy="0.18" r="0.52">
      <stop offset="0%" stop-color="#4ccfff" stop-opacity="0.22"/>
      <stop offset="100%" stop-color="#4ccfff" stop-opacity="0"/>
    </radialGradient>
    <radialGradient id="nebulaB" cx="0.83" cy="0.12" r="0.46">
      <stop offset="0%" stop-color="#7b88ff" stop-opacity="0.18"/>
      <stop offset="100%" stop-color="#7b88ff" stop-opacity="0"/>
    </radialGradient>
    <radialGradient id="nebulaC" cx="0.48" cy="0.9" r="0.56">
      <stop offset="0%" stop-color="#56e8c3" stop-opacity="0.14"/>
      <stop offset="100%" stop-color="#56e8c3" stop-opacity="0"/>
    </radialGradient>
    <linearGradient id="meteorStroke" x1="0" y1="0" x2="1" y2="0">
      <stop offset="0%" stop-color="#ffffff" stop-opacity="0"/>
      <stop offset="32%" stop-color="#cbe9ff" stop-opacity="0.72"/>
      <stop offset="100%" stop-color="#cbe9ff" stop-opacity="0"/>
    </linearGradient>
  </defs>

  <rect width="1920" height="1080" fill="url(#spaceGradient)"/>
  <rect width="1920" height="1080" fill="url(#nebulaA)"/>
  <rect width="1920" height="1080" fill="url(#nebulaB)"/>
  <rect width="1920" height="1080" fill="url(#nebulaC)"/>

  <g fill="#ffffff" fill-opacity="0.65">
    <circle cx="78" cy="86" r="1.2"/>
    <circle cx="230" cy="164" r="1.1"/>
    <circle cx="412" cy="98" r="1.4"/>
    <circle cx="562" cy="156" r="1.1"/>
    <circle cx="748" cy="76" r="1.5"/>
    <circle cx="906" cy="186" r="1.2"/>
    <circle cx="1068" cy="108" r="1.1"/>
    <circle cx="1244" cy="164" r="1.3"/>
    <circle cx="1412" cy="96" r="1.2"/>
    <circle cx="1596" cy="152" r="1.4"/>
    <circle cx="1768" cy="102" r="1.3"/>
    <circle cx="1862" cy="184" r="1.2"/>
    <circle cx="142" cy="286" r="1.4"/>
    <circle cx="336" cy="246" r="1.1"/>
    <circle cx="492" cy="312" r="1.2"/>
    <circle cx="674" cy="274" r="1.5"/>
    <circle cx="834" cy="336" r="1.1"/>
    <circle cx="1026" cy="272" r="1.3"/>
    <circle cx="1188" cy="328" r="1.4"/>
    <circle cx="1364" cy="262" r="1.1"/>
    <circle cx="1528" cy="324" r="1.2"/>
    <circle cx="1704" cy="272" r="1.5"/>
    <circle cx="1846" cy="334" r="1.2"/>
    <circle cx="108" cy="454" r="1.1"/>
    <circle cx="286" cy="398" r="1.3"/>
    <circle cx="458" cy="466" r="1.2"/>
    <circle cx="632" cy="412" r="1.4"/>
    <circle cx="802" cy="484" r="1.1"/>
    <circle cx="976" cy="432" r="1.5"/>
    <circle cx="1148" cy="498" r="1.2"/>
    <circle cx="1328" cy="436" r="1.3"/>
    <circle cx="1498" cy="506" r="1.2"/>
    <circle cx="1676" cy="442" r="1.4"/>
    <circle cx="1838" cy="512" r="1.1"/>
    <circle cx="156" cy="606" r="1.3"/>
    <circle cx="344" cy="552" r="1.1"/>
    <circle cx="516" cy="624" r="1.2"/>
    <circle cx="698" cy="574" r="1.4"/>
    <circle cx="868" cy="646" r="1.2"/>
    <circle cx="1044" cy="592" r="1.3"/>
    <circle cx="1218" cy="662" r="1.1"/>
    <circle cx="1392" cy="608" r="1.4"/>
    <circle cx="1568" cy="674" r="1.2"/>
    <circle cx="1742" cy="618" r="1.5"/>
    <circle cx="1884" cy="682" r="1.1"/>
    <circle cx="84" cy="786" r="1.2"/>
    <circle cx="262" cy="734" r="1.3"/>
    <circle cx="438" cy="804" r="1.1"/>
    <circle cx="612" cy="748" r="1.4"/>
    <circle cx="784" cy="816" r="1.2"/>
    <circle cx="958" cy="762" r="1.3"/>
    <circle cx="1136" cy="828" r="1.1"/>
    <circle cx="1312" cy="772" r="1.5"/>
    <circle cx="1488" cy="842" r="1.2"/>
    <circle cx="1666" cy="786" r="1.3"/>
    <circle cx="1842" cy="852" r="1.1"/>
    <circle cx="122" cy="948" r="1.3"/>
    <circle cx="304" cy="896" r="1.1"/>
    <circle cx="486" cy="968" r="1.2"/>
    <circle cx="664" cy="912" r="1.4"/>
    <circle cx="842" cy="982" r="1.1"/>
    <circle cx="1018" cy="926" r="1.5"/>
    <circle cx="1196" cy="994" r="1.2"/>
    <circle cx="1374" cy="938" r="1.3"/>
    <circle cx="1552" cy="1008" r="1.1"/>
    <circle cx="1732" cy="952" r="1.4"/>
    <circle cx="1894" cy="1018" r="1.2"/>
  </g>

  <g stroke="url(#meteorStroke)" stroke-linecap="round">
    <line x1="220" y1="118" x2="352" y2="38" stroke-width="2.2"/>
    <line x1="986" y1="220" x2="1116" y2="144" stroke-width="2"/>
    <line x1="1526" y1="312" x2="1648" y2="238" stroke-width="1.9"/>
    <line x1="642" y1="514" x2="784" y2="430" stroke-width="2.1"/>
    <line x1="1218" y1="708" x2="1354" y2="628" stroke-width="2"/>
    <line x1="318" y1="874" x2="442" y2="798" stroke-width="1.8"/>
  </g>
</svg>
